<svg xmlns="http://www.w3.org/2000/svg" viewBox="0 0 512 512" fill="#fe424d">
  <!-- Compass outer ring -->
  <path d="M256 0C114.6 0 0 114.6 0 256s114.6 256 256 256 256-114.6 256-256S397.4 0 256 0zm0 464c-114.7 0-208-93.3-208-208S141.3 48 256 48s208 93.3 208 208-93.3 208-208 208z"/>
  <!-- Compass needle -->
  <path d="M381.3 130.7c-4.4-4.4-11.2-5.7-17-3.1l-160 72c-4.7 2.1-8.5 5.9-10.6 10.6l-72 160c-2.6 5.8-1.3 12.6 3.1 17s11.2 5.7 17 3.1l160-72c4.7-2.1 8.5-5.9 10.6-10.6l72-160c2.6-5.8 1.3-12.6-3.1-17zM256 288c-17.7 0-32-14.3-32-32s14.3-32 32-32 32 14.3 32 32-14.3 32-32 32z"/>
</svg>
